<svg xmlns="http://www.w3.org/2000/svg" xmlns:xlink="http://www.w3.org/1999/xlink" width="840" height="602.75"><rect width="840" height="602.75" rx="5" ry="5" class="a"/><svg y="0%" x="0%"><circle cx="20" cy="20" r="6" fill="#ff5f58"/><circle cx="40" cy="20" r="6" fill="#ffbd2e"/><circle cx="60" cy="20" r="6" fill="#18c132"/></svg><svg height="542.75" viewBox="0 0 80 54.275" width="800" x="15" xmlns="http://www.w3.org/2000/svg" xmlns:xlink="http://www.w3.org/1999/xlink" y="50"><style>@keyframes s{0%{transform:translateX(0)}.4%{transform:translateX(-80px)}15.2%{transform:translateX(-160px)}15.6%{transform:translateX(-320px)}15.7%{transform:translateX(-800px)}15.8%{transform:translateX(-880px)}19.2%{transform:translateX(-960px)}39.3%{transform:translateX(-1440px)}68.6%{transform:translateX(-1520px)}69.2%{transform:translateX(-1760px)}70.1%{transform:translateX(-1840px)}70.2%{transform:translateX(-2000px)}70.5%{transform:translateX(-2080px)}70.6%{transform:translateX(-2240px)}70.7%{transform:translateX(-2320px)}to{transform:translateX(-2400px)}}.a{fill:#282d35}.f{fill:#444}.g,.h{fill:#0087af;white-space:pre}.h{fill:#00afff;font-weight:700}.i,.j,.k,.l,.m{fill:#444;white-space:pre}.j,.k,.l,.m{fill:#5faf00}.k,.l,.m{fill:#b9c0cb}.l,.m{fill:#6f7783}.m{fill:#a8cc8c}.n{fill:#dbab79}.n,.o,.p{white-space:pre}.o{fill:#a8cc8c;text-decoration:underline}.p{fill:#e88388;font-weight:700}</style><g font-family="meslolgs nf,Monaco,Consolas,Menlo,'Bitstream Vera Sans Mono','Powerline Symbols',monospace" font-size="1.67"><defs><symbol id="1"><path class="f" d="M0 0h1v2.171H0z"/><text y="1.67" class="g"></text><path class="f" d="M1.002 0h1v2.171h-1z"/><text x="1.002" y="1.67" class="h">~</text><path class="f" d="M2.004 0h1v2.171h-1z"/><text x="2.004" y="1.67" class="g"></text><text x="3.006" y="1.67" class="i"></text><text x="75.15" y="1.67" class="i"></text><path class="f" d="M76.152 0h3v2.171h-3z"/><text x="76.152" y="1.67" class="j">✔</text></symbol><symbol id="2"><path class="f" d="M0 0h1v2.171H0z"/><text y="1.67" class="g"></text><path class="f" d="M1.002 0h1v2.171h-1z"/><text x="1.002" y="1.67" class="h">~</text><path class="f" d="M2.004 0h1v2.171h-1z"/><text x="2.004" y="1.67" class="g"></text><text x="3.006" y="1.67" class="i"></text><text x="5.01" y="1.67" class="k">r</text><text x="75.15" y="1.67" class="i"></text><path class="f" d="M76.152 0h3v2.171h-3z"/><text x="76.152" y="1.67" class="j">✔</text></symbol><symbol id="3"><text y="1.67" class="l">/usr/local/include</text></symbol><symbol id="4"><text y="1.67" class="l">/usr/local/lib</text></symbol><symbol id="5"><text y="1.67" class="l">/usr/local/lib/pkgconfig</text></symbol><symbol id="6"><text y="1.67" class="l">/usr/local/opt</text></symbol><symbol id="7"><text y="1.67" class="l">/usr/local/sbin</text></symbol><symbol id="8"><text y="1.67" class="l">/usr/local/share</text></symbol><symbol id="9"><text y="1.67" class="l">/usr/local/share/aclocal</text></symbol><symbol id="10"><text y="1.67" class="l">/usr/local/share/doc</text></symbol><symbol id="11"><text y="1.67" class="l">/usr/local/share/info</text></symbol><symbol id="12"><text y="1.67" class="l">/usr/local/share/locale</text></symbol><symbol id="13"><text y="1.67" class="l">/usr/local/share/man</text></symbol><symbol id="14"><text y="1.67" class="l">/usr/local/share/man/man1</text></symbol><symbol id="15"><text y="1.67" class="l">/usr/local/share/man/man3</text></symbol><symbol id="16"><text y="1.67" class="l">/usr/local/share/man/man5</text></symbol><symbol id="17"><text y="1.67" class="l">/usr/local/share/man/man7</text></symbol><symbol id="18"><text y="1.67" class="l">/usr/local/share/man/man8</text></symbol><symbol id="19"><text y="1.67" class="l">/usr/local/share/zsh</text></symbol><symbol id="20"><text y="1.67" class="l">/usr/local/share/zsh/site-functions</text></symbol><symbol id="21"><text y="1.67" class="l">/usr/local/var/log</text></symbol><symbol id="22"><text y="1.67" class="l">EOF</text></symbol><symbol id="23"><path class="f" d="M0 0h1v2.171H0z"/><text y="1.67" class="g"></text><path class="f" d="M1.002 0h1v2.171h-1z"/><text x="1.002" y="1.67" class="h">~</text><path class="f" d="M2.004 0h1v2.171h-1z"/><text x="2.004" y="1.67" class="g"></text><text x="3.006" y="1.67" class="i"></text><text x="5.01" y="1.67" class="m">ret</text><text x="9.018" y="1.67" class="n">&quot;^/usr/local/(.+)$&quot;</text><text x="29.058" y="1.67" class="k">--multiline</text><text x="41.082" y="1.67" class="k">f</text><text x="43.086" y="1.67" class="k">-g</text><text x="46.092" y="1.67" class="k">1</text><text x="48.096" y="1.67" class="n">&lt;&lt;</text><text x="51.102" y="1.67" class="n">&quot;EOF&quot;</text><text x="75.15" y="1.67" class="i"></text><path class="f" d="M76.152 0h3v2.171h-3z"/><text x="76.152" y="1.67" class="j">✔</text></symbol><symbol id="24"><text y="1.67" class="o">/usr/local/Frameworks</text></symbol><symbol id="25"><text y="1.67" class="o">/usr/local/bin</text></symbol><symbol id="26"><text y="1.67" class="o">/usr/local/etc</text></symbol><symbol id="27"><text y="1.67" class="o">/usr/local/etc/bash_completion.d</text></symbol><symbol id="28"><text y="1.67" class="o">/usr/local/include</text></symbol><symbol id="29"><text y="1.67" class="o">/usr/local/lib</text></symbol><symbol id="30"><text y="1.67" class="o">/usr/local/lib/pkgconfig</text></symbol><symbol id="31"><text y="1.67" class="o">/usr/local/opt</text></symbol><symbol id="32"><text y="1.67" class="o">/usr/local/sbin</text></symbol><symbol id="33"><text y="1.67" class="o">/usr/local/share</text></symbol><symbol id="34"><text y="1.67" class="o">/usr/local/share/aclocal</text></symbol><symbol id="35"><text y="1.67" class="o">/usr/local/share/doc</text></symbol><symbol id="36"><text y="1.67" class="o">/usr/local/share/info</text></symbol><symbol id="37"><text y="1.67" class="o">/usr/local/share/locale</text></symbol><symbol id="38"><text y="1.67" class="o">/usr/local/share/man</text></symbol><symbol id="39"><text y="1.67" class="o">/usr/local/share/man/man1</text></symbol><symbol id="40"><text y="1.67" class="o">/usr/local/share/man/man3</text></symbol><symbol id="41"><text y="1.67" class="o">/usr/local/share/man/man5</text></symbol><symbol id="42"><text y="1.67" class="o">/usr/local/share/man/man7</text></symbol><symbol id="43"><text y="1.67" class="o">/usr/local/share/man/man8</text></symbol><symbol id="44"><text y="1.67" class="o">/usr/local/share/zsh</text></symbol><symbol id="45"><text y="1.67" class="o">/usr/local/share/zsh/site-functions</text></symbol><symbol id="46"><text y="1.67" class="o">/usr/local/var/log</text></symbol><symbol id="47"><text y="1.67" class="p">EOF</text></symbol><symbol id="48"><text y="1.67" class="k">Frameworks</text></symbol><symbol id="49"><text y="1.67" class="k">bin</text></symbol><symbol id="50"><text y="1.67" class="k">etc</text></symbol><symbol id="51"><text y="1.67" class="k">etc/bash_completion.d</text></symbol><symbol id="52"><text y="1.67" class="k">include</text></symbol><symbol id="53"><text y="1.67" class="k">lib</text></symbol><symbol id="54"><text y="1.67" class="k">lib/pkgconfig</text></symbol><symbol id="55"><text y="1.67" class="k">opt</text></symbol><symbol id="56"><text y="1.67" class="k">sbin</text></symbol><symbol id="57"><text y="1.67" class="k">share</text></symbol><symbol id="58"><text y="1.67" class="k">share/aclocal</text></symbol><symbol id="59"><text y="1.67" class="k">share/doc</text></symbol><symbol id="60"><text y="1.67" class="k">share/info</text></symbol><symbol id="61"><text y="1.67" class="k">share/locale</text></symbol><symbol id="62"><text y="1.67" class="k">share/man</text></symbol><symbol id="63"><text y="1.67" class="k">share/man/man1</text></symbol><symbol id="64"><text y="1.67" class="k">share/man/man3</text></symbol><symbol id="65"><text y="1.67" class="k">share/man/man5</text></symbol><symbol id="66"><text y="1.67" class="k">share/man/man7</text></symbol><symbol id="67"><text y="1.67" class="k">share/man/man8</text></symbol><symbol id="68"><text y="1.67" class="k">share/zsh</text></symbol><symbol id="69"><text y="1.67" class="k">share/zsh/site-functions</text></symbol><symbol id="70"><text y="1.67" class="k">var/log</text></symbol><symbol id="a"><path fill="transparent" d="M0 0h80v25H0z"/></symbol><symbol id="b"><path fill="#6f7683" d="M0 0h1.102v2.171H0z"/></symbol></defs><path class="a" d="M0 0h80v54.275H0z"/><g style="animation-duration:8.522414s;animation-iteration-count:infinite;animation-name:s;animation-timing-function:steps(1,end)"><svg width="2480"><svg><use xlink:href="#a"/><use xlink:href="#b" x="-.004"/></svg><svg x="80"><use xlink:href="#a"/><use xlink:href="#b" x="4.996"/><use xlink:href="#1"/></svg><svg x="160"><use xlink:href="#a"/><use xlink:href="#b" x="5.996"/><use xlink:href="#2"/></svg><svg x="240"><use xlink:href="#a"/><use xlink:href="#2"/></svg><svg x="320"><use xlink:href="#a"/></svg><svg x="400"><use xlink:href="#a"/></svg><svg x="480"><use xlink:href="#a"/></svg><svg x="560"><use xlink:href="#a"/><use xlink:href="#1"/></svg><svg x="640"><use xlink:href="#a"/><use xlink:href="#1"/></svg><svg x="720"><use xlink:href="#a"/><use xlink:href="#b" x="4.996"/><use xlink:href="#1"/></svg><svg x="800"><use xlink:href="#a"/><use xlink:href="#b" x="4.996"/><use xlink:href="#1"/></svg><svg x="880"><use xlink:href="#a"/><use xlink:href="#b" x="5.996"/><path class="f" d="M0 0h1v2.171H0z"/><text y="1.67" class="g"></text><path class="f" d="M1.002 0h1v2.171h-1z"/><text x="1.002" y="1.67" class="h">~</text><path class="f" d="M2.004 0h1v2.171h-1z"/><text x="2.004" y="1.67" class="g"></text><text x="3.006" y="1.67" class="i"></text><text x="5.01" y="1.67" class="m">r</text><text x="6.012" y="1.67" class="l">m</text><text x="8.016" y="1.67" class="l">demo.cast</text><text x="75.15" y="1.67" class="i"></text><path class="f" d="M76.152 0h3v2.171h-3z"/><text x="76.152" y="1.67" class="j">✔</text></svg><svg x="960"><use xlink:href="#a"/><use xlink:href="#b" x="6.996"/><path class="f" d="M0 0h1v2.171H0z"/><text y="1.67" class="g"></text><path class="f" d="M1.002 0h1v2.171h-1z"/><text x="1.002" y="1.67" class="h">~</text><path class="f" d="M2.004 0h1v2.171h-1z"/><text x="2.004" y="1.67" class="g"></text><text x="3.006" y="1.67" class="i"></text><text x="5.01" y="1.67" class="p">re</text><text x="7.014" y="1.67" class="l">t</text><text x="9.018" y="1.67" class="l">&quot;^/usr/local/(.+)$&quot;</text><text x="29.058" y="1.67" class="l">--multiline</text><text x="41.082" y="1.67" class="l">f</text><text x="43.086" y="1.67" class="l">-g</text><text x="46.092" y="1.67" class="l">1</text><text x="48.096" y="1.67" class="l">&lt;&lt;</text><text x="51.102" y="1.67" class="l">&quot;EOF&quot;</text><text x="75.15" y="1.67" class="i"></text><path class="f" d="M76.152 0h3v2.171h-3z"/><text x="76.152" y="1.67" class="j">✔</text><text y="3.841" class="l">/usr/local/Frameworks</text><text y="6.012" class="l">/usr/local/bin</text><text y="8.183" class="l">/usr/local/etc</text><text y="10.354" class="l">/usr/local/etc/bash_completion.d</text><use xlink:href="#3" y="10.855"/><use xlink:href="#4" y="13.026"/><use xlink:href="#5" y="15.197"/><use xlink:href="#6" y="17.368"/><use xlink:href="#7" y="19.539"/><use xlink:href="#8" y="21.71"/><use xlink:href="#9" y="23.881"/><use xlink:href="#10" y="26.052"/><use xlink:href="#11" y="28.223"/><use xlink:href="#12" y="30.394"/><use xlink:href="#13" y="32.565"/><use xlink:href="#14" y="34.736"/><use xlink:href="#15" y="36.907"/><use xlink:href="#16" y="39.078"/><use xlink:href="#17" y="41.249"/><use xlink:href="#18" y="43.42"/><use xlink:href="#19" y="45.591"/><use xlink:href="#20" y="47.762"/><use xlink:href="#21" y="49.933"/><use xlink:href="#22" y="52.104"/></svg><svg x="1040"><use xlink:href="#a"/><use xlink:href="#b" x="13.996" y="8.659"/><use xlink:href="#23"/><use xlink:href="#24" y="2.171"/><use xlink:href="#25" y="4.342"/><use xlink:href="#26" y="6.513"/><text y="10.354" class="o">/usr/local/etc</text><text x="14.028" y="10.354" class="l">/bash_completion.d</text><use xlink:href="#3" y="10.855"/><use xlink:href="#4" y="13.026"/><use xlink:href="#5" y="15.197"/><use xlink:href="#6" y="17.368"/><use xlink:href="#7" y="19.539"/><use xlink:href="#8" y="21.71"/><use xlink:href="#9" y="23.881"/><use xlink:href="#10" y="26.052"/><use xlink:href="#11" y="28.223"/><use xlink:href="#12" y="30.394"/><use xlink:href="#13" y="32.565"/><use xlink:href="#14" y="34.736"/><use xlink:href="#15" y="36.907"/><use xlink:href="#16" y="39.078"/><use xlink:href="#17" y="41.249"/><use xlink:href="#18" y="43.42"/><use xlink:href="#19" y="45.591"/><use xlink:href="#20" y="47.762"/><use xlink:href="#21" y="49.933"/><use xlink:href="#22" y="52.104"/></svg><svg x="1120"><use xlink:href="#a"/><use xlink:href="#b" x="6.996" y="19.514"/><use xlink:href="#23"/><use xlink:href="#24" y="2.171"/><use xlink:href="#25" y="4.342"/><use xlink:href="#26" y="6.513"/><use xlink:href="#27" y="8.684"/><use xlink:href="#28" y="10.855"/><use xlink:href="#29" y="13.026"/><use xlink:href="#30" y="15.197"/><use xlink:href="#31" y="17.368"/><text y="21.209" class="o">/usr/lo</text><text x="7.014" y="21.209" class="l">cal/sbin</text><use xlink:href="#8" y="21.71"/><use xlink:href="#9" y="23.881"/><use xlink:href="#10" y="26.052"/><use xlink:href="#11" y="28.223"/><use xlink:href="#12" y="30.394"/><use xlink:href="#13" y="32.565"/><use xlink:href="#14" y="34.736"/><use xlink:href="#15" y="36.907"/><use xlink:href="#16" y="39.078"/><use xlink:href="#17" y="41.249"/><use xlink:href="#18" y="43.42"/><use xlink:href="#19" y="45.591"/><use xlink:href="#20" y="47.762"/><use xlink:href="#21" y="49.933"/><use xlink:href="#22" y="52.104"/></svg><svg x="1200"><use xlink:href="#a"/><use xlink:href="#b" x="5.996" y="30.369"/><use xlink:href="#23"/><use xlink:href="#24" y="2.171"/><use xlink:href="#25" y="4.342"/><use xlink:href="#26" y="6.513"/><use xlink:href="#27" y="8.684"/><use xlink:href="#28" y="10.855"/><use xlink:href="#29" y="13.026"/><use xlink:href="#30" y="15.197"/><use xlink:href="#31" y="17.368"/><use xlink:href="#32" y="19.539"/><use xlink:href="#33" y="21.71"/><use xlink:href="#34" y="23.881"/><use xlink:href="#35" y="26.052"/><use xlink:href="#36" y="28.223"/><text y="32.064" class="o">/usr/l</text><text x="6.012" y="32.064" class="l">ocal/share/locale</text><use xlink:href="#13" y="32.565"/><use xlink:href="#14" y="34.736"/><use xlink:href="#15" y="36.907"/><use xlink:href="#16" y="39.078"/><use xlink:href="#17" y="41.249"/><use xlink:href="#18" y="43.42"/><use xlink:href="#19" y="45.591"/><use xlink:href="#20" y="47.762"/><use xlink:href="#21" y="49.933"/><use xlink:href="#22" y="52.104"/></svg><svg x="1280"><use xlink:href="#a"/><use xlink:href="#b" x="9.996" y="39.053"/><use xlink:href="#23"/><use xlink:href="#24" y="2.171"/><use xlink:href="#25" y="4.342"/><use xlink:href="#26" y="6.513"/><use xlink:href="#27" y="8.684"/><use xlink:href="#28" y="10.855"/><use xlink:href="#29" y="13.026"/><use xlink:href="#30" y="15.197"/><use xlink:href="#31" y="17.368"/><use xlink:href="#32" y="19.539"/><use xlink:href="#33" y="21.71"/><use xlink:href="#34" y="23.881"/><use xlink:href="#35" y="26.052"/><use xlink:href="#36" y="28.223"/><use xlink:href="#37" y="30.394"/><use xlink:href="#38" y="32.565"/><use xlink:href="#39" y="34.736"/><use xlink:href="#40" y="36.907"/><text y="40.748" class="o">/usr/local</text><text x="10.02" y="40.748" class="l">/share/man/man5</text><use xlink:href="#17" y="41.249"/><use xlink:href="#18" y="43.42"/><use xlink:href="#19" y="45.591"/><use xlink:href="#20" y="47.762"/><use xlink:href="#21" y="49.933"/><use xlink:href="#22" y="52.104"/></svg><svg x="1360"><use xlink:href="#a"/><use xlink:href="#b" x="10.996" y="47.737"/><use xlink:href="#23"/><use xlink:href="#24" y="2.171"/><use xlink:href="#25" y="4.342"/><use xlink:href="#26" y="6.513"/><use xlink:href="#27" y="8.684"/><use xlink:href="#28" y="10.855"/><use xlink:href="#29" y="13.026"/><use xlink:href="#30" y="15.197"/><use xlink:href="#31" y="17.368"/><use xlink:href="#32" y="19.539"/><use xlink:href="#33" y="21.71"/><use xlink:href="#34" y="23.881"/><use xlink:href="#35" y="26.052"/><use xlink:href="#36" y="28.223"/><use xlink:href="#37" y="30.394"/><use xlink:href="#38" y="32.565"/><use xlink:href="#39" y="34.736"/><use xlink:href="#40" y="36.907"/><use xlink:href="#41" y="39.078"/><use xlink:href="#42" y="41.249"/><use xlink:href="#43" y="43.42"/><use xlink:href="#44" y="45.591"/><text y="49.432" class="o">/usr/local/</text><text x="11.022" y="49.432" class="l">share/zsh/site-functions</text><use xlink:href="#21" y="49.933"/><use xlink:href="#22" y="52.104"/></svg><svg x="1440"><use xlink:href="#a"/><use xlink:href="#b" x="2.996" y="52.079"/><use xlink:href="#23"/><use xlink:href="#24" y="2.171"/><use xlink:href="#25" y="4.342"/><use xlink:href="#26" y="6.513"/><use xlink:href="#27" y="8.684"/><use xlink:href="#28" y="10.855"/><use xlink:href="#29" y="13.026"/><use xlink:href="#30" y="15.197"/><use xlink:href="#31" y="17.368"/><use xlink:href="#32" y="19.539"/><use xlink:href="#33" y="21.71"/><use xlink:href="#34" y="23.881"/><use xlink:href="#35" y="26.052"/><use xlink:href="#36" y="28.223"/><use xlink:href="#37" y="30.394"/><use xlink:href="#38" y="32.565"/><use xlink:href="#39" y="34.736"/><use xlink:href="#40" y="36.907"/><use xlink:href="#41" y="39.078"/><use xlink:href="#42" y="41.249"/><use xlink:href="#43" y="43.42"/><use xlink:href="#44" y="45.591"/><use xlink:href="#45" y="47.762"/><use xlink:href="#46" y="49.933"/><use xlink:href="#47" y="52.104"/></svg><svg x="1520"><use xlink:href="#a"/><use xlink:href="#b" x="2.996" y="52.079"/><use xlink:href="#23"/><use xlink:href="#24" y="2.171"/><use xlink:href="#25" y="4.342"/><use xlink:href="#26" y="6.513"/><use xlink:href="#27" y="8.684"/><use xlink:href="#28" y="10.855"/><use xlink:href="#29" y="13.026"/><use xlink:href="#30" y="15.197"/><use xlink:href="#31" y="17.368"/><use xlink:href="#32" y="19.539"/><use xlink:href="#33" y="21.71"/><use xlink:href="#34" y="23.881"/><use xlink:href="#35" y="26.052"/><use xlink:href="#36" y="28.223"/><use xlink:href="#37" y="30.394"/><use xlink:href="#38" y="32.565"/><use xlink:href="#39" y="34.736"/><use xlink:href="#40" y="36.907"/><use xlink:href="#41" y="39.078"/><use xlink:href="#42" y="41.249"/><use xlink:href="#43" y="43.42"/><use xlink:href="#44" y="45.591"/><use xlink:href="#45" y="47.762"/><use xlink:href="#46" y="49.933"/><use xlink:href="#47" y="52.104"/></svg><svg x="1600"><use xlink:href="#a"/><use xlink:href="#b" x="-.004" y="52.079"/><use xlink:href="#24"/><use xlink:href="#25" y="2.171"/><use xlink:href="#26" y="4.342"/><use xlink:href="#27" y="6.513"/><use xlink:href="#28" y="8.684"/><use xlink:href="#29" y="10.855"/><use xlink:href="#30" y="13.026"/><use xlink:href="#31" y="15.197"/><use xlink:href="#32" y="17.368"/><use xlink:href="#33" y="19.539"/><use xlink:href="#34" y="21.71"/><use xlink:href="#35" y="23.881"/><use xlink:href="#36" y="26.052"/><use xlink:href="#37" y="28.223"/><use xlink:href="#38" y="30.394"/><use xlink:href="#39" y="32.565"/><use xlink:href="#40" y="34.736"/><use xlink:href="#41" y="36.907"/><use xlink:href="#42" y="39.078"/><use xlink:href="#43" y="41.249"/><use xlink:href="#44" y="43.42"/><use xlink:href="#45" y="45.591"/><use xlink:href="#46" y="47.762"/><use xlink:href="#47" y="49.933"/></svg><svg x="1680"><use xlink:href="#a"/><use xlink:href="#b" x="-.004" y="52.079"/><use xlink:href="#24"/><use xlink:href="#25" y="2.171"/><use xlink:href="#26" y="4.342"/><use xlink:href="#27" y="6.513"/><use xlink:href="#28" y="8.684"/><use xlink:href="#29" y="10.855"/><use xlink:href="#30" y="13.026"/><use xlink:href="#31" y="15.197"/><use xlink:href="#32" y="17.368"/><use xlink:href="#33" y="19.539"/><use xlink:href="#34" y="21.71"/><use xlink:href="#35" y="23.881"/><use xlink:href="#36" y="26.052"/><use xlink:href="#37" y="28.223"/><use xlink:href="#38" y="30.394"/><use xlink:href="#39" y="32.565"/><use xlink:href="#40" y="34.736"/><use xlink:href="#41" y="36.907"/><use xlink:href="#42" y="39.078"/><use xlink:href="#43" y="41.249"/><use xlink:href="#44" y="43.42"/><use xlink:href="#45" y="45.591"/><use xlink:href="#46" y="47.762"/><use xlink:href="#47" y="49.933"/></svg><svg x="1760"><use xlink:href="#a"/><use xlink:href="#b" x="-.004" y="52.079"/><use xlink:href="#24"/><use xlink:href="#25" y="2.171"/><use xlink:href="#26" y="4.342"/><use xlink:href="#27" y="6.513"/><use xlink:href="#28" y="8.684"/><use xlink:href="#29" y="10.855"/><use xlink:href="#30" y="13.026"/><use xlink:href="#31" y="15.197"/><use xlink:href="#32" y="17.368"/><use xlink:href="#33" y="19.539"/><use xlink:href="#34" y="21.71"/><use xlink:href="#35" y="23.881"/><use xlink:href="#36" y="26.052"/><use xlink:href="#37" y="28.223"/><use xlink:href="#38" y="30.394"/><use xlink:href="#39" y="32.565"/><use xlink:href="#40" y="34.736"/><use xlink:href="#41" y="36.907"/><use xlink:href="#42" y="39.078"/><use xlink:href="#43" y="41.249"/><use xlink:href="#44" y="43.42"/><use xlink:href="#45" y="45.591"/><use xlink:href="#46" y="47.762"/><use xlink:href="#47" y="49.933"/></svg><svg x="1840"><use xlink:href="#a"/><use xlink:href="#b" x="-.004" y="52.079"/><use xlink:href="#47"/><use xlink:href="#48" y="2.171"/><use xlink:href="#49" y="4.342"/><use xlink:href="#50" y="6.513"/><use xlink:href="#51" y="8.684"/><use xlink:href="#52" y="10.855"/><use xlink:href="#53" y="13.026"/><use xlink:href="#54" y="15.197"/><use xlink:href="#55" y="17.368"/><use xlink:href="#56" y="19.539"/><use xlink:href="#57" y="21.71"/><use xlink:href="#58" y="23.881"/><use xlink:href="#59" y="26.052"/><use xlink:href="#60" y="28.223"/><use xlink:href="#61" y="30.394"/><use xlink:href="#62" y="32.565"/><use xlink:href="#63" y="34.736"/><use xlink:href="#64" y="36.907"/><use xlink:href="#65" y="39.078"/><use xlink:href="#66" y="41.249"/><use xlink:href="#67" y="43.42"/><use xlink:href="#68" y="45.591"/><use xlink:href="#69" y="47.762"/><use xlink:href="#70" y="49.933"/></svg><svg x="1920"><use xlink:href="#a"/><use xlink:href="#b" x="-.004" y="52.079"/><use xlink:href="#47"/><use xlink:href="#48" y="2.171"/><use xlink:href="#49" y="4.342"/><use xlink:href="#50" y="6.513"/><use xlink:href="#51" y="8.684"/><use xlink:href="#52" y="10.855"/><use xlink:href="#53" y="13.026"/><use xlink:href="#54" y="15.197"/><use xlink:href="#55" y="17.368"/><use xlink:href="#56" y="19.539"/><use xlink:href="#57" y="21.71"/><use xlink:href="#58" y="23.881"/><use xlink:href="#59" y="26.052"/><use xlink:href="#60" y="28.223"/><use xlink:href="#61" y="30.394"/><use xlink:href="#62" y="32.565"/><use xlink:href="#63" y="34.736"/><use xlink:href="#64" y="36.907"/><use xlink:href="#65" y="39.078"/><use xlink:href="#66" y="41.249"/><use xlink:href="#67" y="43.42"/><use xlink:href="#68" y="45.591"/><use xlink:href="#69" y="47.762"/><use xlink:href="#70" y="49.933"/></svg><svg x="2000"><use xlink:href="#a"/><use xlink:href="#b" x="-.004" y="52.079"/><use xlink:href="#47"/><use xlink:href="#48" y="2.171"/><use xlink:href="#49" y="4.342"/><use xlink:href="#50" y="6.513"/><use xlink:href="#51" y="8.684"/><use xlink:href="#52" y="10.855"/><use xlink:href="#53" y="13.026"/><use xlink:href="#54" y="15.197"/><use xlink:href="#55" y="17.368"/><use xlink:href="#56" y="19.539"/><use xlink:href="#57" y="21.71"/><use xlink:href="#58" y="23.881"/><use xlink:href="#59" y="26.052"/><use xlink:href="#60" y="28.223"/><use xlink:href="#61" y="30.394"/><use xlink:href="#62" y="32.565"/><use xlink:href="#63" y="34.736"/><use xlink:href="#64" y="36.907"/><use xlink:href="#65" y="39.078"/><use xlink:href="#66" y="41.249"/><use xlink:href="#67" y="43.42"/><use xlink:href="#68" y="45.591"/><use xlink:href="#69" y="47.762"/><use xlink:href="#70" y="49.933"/></svg><svg x="2080"><use xlink:href="#a"/><use xlink:href="#b" x="-.004" y="52.079"/><use xlink:href="#47"/><use xlink:href="#48" y="2.171"/><use xlink:href="#49" y="4.342"/><use xlink:href="#50" y="6.513"/><use xlink:href="#51" y="8.684"/><use xlink:href="#52" y="10.855"/><use xlink:href="#53" y="13.026"/><use xlink:href="#54" y="15.197"/><use xlink:href="#55" y="17.368"/><use xlink:href="#56" y="19.539"/><use xlink:href="#57" y="21.71"/><use xlink:href="#58" y="23.881"/><use xlink:href="#59" y="26.052"/><use xlink:href="#60" y="28.223"/><use xlink:href="#61" y="30.394"/><use xlink:href="#62" y="32.565"/><use xlink:href="#63" y="34.736"/><use xlink:href="#64" y="36.907"/><use xlink:href="#65" y="39.078"/><use xlink:href="#66" y="41.249"/><use xlink:href="#67" y="43.42"/><use xlink:href="#68" y="45.591"/><use xlink:href="#69" y="47.762"/><use xlink:href="#70" y="49.933"/></svg><svg x="2160"><use xlink:href="#a"/><use xlink:href="#b" x="4.996" y="52.079"/><use xlink:href="#47"/><use xlink:href="#48" y="2.171"/><use xlink:href="#49" y="4.342"/><use xlink:href="#50" y="6.513"/><use xlink:href="#51" y="8.684"/><use xlink:href="#52" y="10.855"/><use xlink:href="#53" y="13.026"/><use xlink:href="#54" y="15.197"/><use xlink:href="#55" y="17.368"/><use xlink:href="#56" y="19.539"/><use xlink:href="#57" y="21.71"/><use xlink:href="#58" y="23.881"/><use xlink:href="#59" y="26.052"/><use xlink:href="#60" y="28.223"/><use xlink:href="#61" y="30.394"/><use xlink:href="#62" y="32.565"/><use xlink:href="#63" y="34.736"/><use xlink:href="#64" y="36.907"/><use xlink:href="#65" y="39.078"/><use xlink:href="#66" y="41.249"/><use xlink:href="#67" y="43.42"/><use xlink:href="#68" y="45.591"/><use xlink:href="#69" y="47.762"/><use xlink:href="#70" y="49.933"/><use xlink:href="#1" y="52.104"/></svg><svg x="2240"><use xlink:href="#a"/><use xlink:href="#b" x="4.996" y="52.079"/><use xlink:href="#47"/><use xlink:href="#48" y="2.171"/><use xlink:href="#49" y="4.342"/><use xlink:href="#50" y="6.513"/><use xlink:href="#51" y="8.684"/><use xlink:href="#52" y="10.855"/><use xlink:href="#53" y="13.026"/><use xlink:href="#54" y="15.197"/><use xlink:href="#55" y="17.368"/><use xlink:href="#56" y="19.539"/><use xlink:href="#57" y="21.71"/><use xlink:href="#58" y="23.881"/><use xlink:href="#59" y="26.052"/><use xlink:href="#60" y="28.223"/><use xlink:href="#61" y="30.394"/><use xlink:href="#62" y="32.565"/><use xlink:href="#63" y="34.736"/><use xlink:href="#64" y="36.907"/><use xlink:href="#65" y="39.078"/><use xlink:href="#66" y="41.249"/><use xlink:href="#67" y="43.42"/><use xlink:href="#68" y="45.591"/><use xlink:href="#69" y="47.762"/><use xlink:href="#70" y="49.933"/><use xlink:href="#1" y="52.104"/></svg><svg x="2320"><use xlink:href="#a"/><use xlink:href="#b" x="4.996" y="52.079"/><use xlink:href="#47"/><use xlink:href="#48" y="2.171"/><use xlink:href="#49" y="4.342"/><use xlink:href="#50" y="6.513"/><use xlink:href="#51" y="8.684"/><use xlink:href="#52" y="10.855"/><use xlink:href="#53" y="13.026"/><use xlink:href="#54" y="15.197"/><use xlink:href="#55" y="17.368"/><use xlink:href="#56" y="19.539"/><use xlink:href="#57" y="21.71"/><use xlink:href="#58" y="23.881"/><use xlink:href="#59" y="26.052"/><use xlink:href="#60" y="28.223"/><use xlink:href="#61" y="30.394"/><use xlink:href="#62" y="32.565"/><use xlink:href="#63" y="34.736"/><use xlink:href="#64" y="36.907"/><use xlink:href="#65" y="39.078"/><use xlink:href="#66" y="41.249"/><use xlink:href="#67" y="43.42"/><use xlink:href="#68" y="45.591"/><use xlink:href="#69" y="47.762"/><use xlink:href="#70" y="49.933"/><use xlink:href="#1" y="52.104"/></svg><svg x="2400"><use xlink:href="#a"/><use xlink:href="#b" x="-.004" y="52.079"/><use xlink:href="#48"/><use xlink:href="#49" y="2.171"/><use xlink:href="#50" y="4.342"/><use xlink:href="#51" y="6.513"/><use xlink:href="#52" y="8.684"/><use xlink:href="#53" y="10.855"/><use xlink:href="#54" y="13.026"/><use xlink:href="#55" y="15.197"/><use xlink:href="#56" y="17.368"/><use xlink:href="#57" y="19.539"/><use xlink:href="#58" y="21.71"/><use xlink:href="#59" y="23.881"/><use xlink:href="#60" y="26.052"/><use xlink:href="#61" y="28.223"/><use xlink:href="#62" y="30.394"/><use xlink:href="#63" y="32.565"/><use xlink:href="#64" y="34.736"/><use xlink:href="#65" y="36.907"/><use xlink:href="#66" y="39.078"/><use xlink:href="#67" y="41.249"/><use xlink:href="#68" y="43.42"/><use xlink:href="#69" y="45.591"/><use xlink:href="#70" y="47.762"/><use xlink:href="#1" y="49.933"/></svg></svg></g></g></svg></svg>
